HIERARCHY
ROOT Hips
{
    OFFSET 0.000000 0.000000 0.000000
    CHANNELS 6 Xposition Yposition Zposition Zrotation Xrotation Yrotation
    JOINT Spine
    {
        OFFSET -0.000000 8.505030 0.000000
        CHANNELS 3 Zrotation Xrotation Yrotation
        JOINT Spine1
        {
            OFFSET -0.000000 25.070629 0.000000
            CHANNELS 3 Zrotation Xrotation Yrotation
            JOINT Neck
            {
                OFFSET -0.000000 24.967667 2.269788
                CHANNELS 3 Zrotation Xrotation Yrotation
                JOINT Head
                {
                    OFFSET -0.000000 14.520781 -2.074397
                    CHANNELS 3 Zrotation Xrotation Yrotation
                    End Site
                    {
                        OFFSET -0.000000 25.929966 0.000000
                    }
                }
            }
            JOINT LeftShoulder
            {
                OFFSET 4.117346 22.983784 -0.389865
                CHANNELS 3 Zrotation Xrotation Yrotation
                JOINT LeftArm
                {
                    OFFSET 11.957758 0.000000 0.000000
                    CHANNELS 3 Zrotation Xrotation Yrotation
                    JOINT LeftForeArm
                    {
                        OFFSET 31.907600 0.000000 0.000000
                        CHANNELS 3 Zrotation Xrotation Yrotation
                        JOINT LeftHand
                        {
                            OFFSET 28.601147 0.000000 0.000000
                            CHANNELS 3 Zrotation Xrotation Yrotation
                            End Site
                            {
                                OFFSET 15.557981 0.000000 0.000000
                            }
                        }
                    }
                }
            }
            JOINT RightShoulder
            {
                OFFSET -4.061940 22.983784 -0.389865
                CHANNELS 3 Zrotation Xrotation Yrotation
                JOINT RightArm
                {
                    OFFSET -11.957758 0.000000 0.000000
                    CHANNELS 3 Zrotation Xrotation Yrotation
                    JOINT RightForeArm
                    {
                        OFFSET -31.907600 0.000000 0.000000
                        CHANNELS 3 Zrotation Xrotation Yrotation
                        JOINT RightHand
                        {
                            OFFSET -28.601147 0.000000 0.000000
                            CHANNELS 3 Zrotation Xrotation Yrotation
                            End Site
                            {
                                OFFSET -15.557981 0.000000 0.000000
                            }
                        }
                    }
                }
            }
        }
    }
    JOINT LeftUpLeg
    {
        OFFSET 10.371986 0.000000 0.000000
        CHANNELS 3 Zrotation Xrotation Yrotation
        JOINT LeftLeg
        {
            OFFSET -0.000000 -42.486427 0.000000
            CHANNELS 3 Zrotation Xrotation Yrotation
            JOINT LeftFoot
            {
                OFFSET -0.000000 -48.322342 0.000000
                CHANNELS 3 Zrotation Xrotation Yrotation
                JOINT LeftToeBase
                {
                    OFFSET -0.000000 -6.741791 15.557981
                    CHANNELS 3 Zrotation Xrotation Yrotation
                    End Site
                    {
                        OFFSET -0.000000 0.000000 4.148795
                    }
                }
            }
        }
    }
    JOINT RightUpLeg
    {
        OFFSET -10.371986 0.000000 0.000000
        CHANNELS 3 Zrotation Xrotation Yrotation
        JOINT RightLeg
        {
            OFFSET -0.000000 -42.486427 0.000000
            CHANNELS 3 Zrotation Xrotation Yrotation
            JOINT RightFoot
            {
                OFFSET -0.000000 -48.322342 0.000000
                CHANNELS 3 Zrotation Xrotation Yrotation
                JOINT RightToeBase
                {
                    OFFSET -0.000000 -6.741791 15.557981
                    CHANNELS 3 Zrotation Xrotation Yrotation
                    End Site
                    {
                        OFFSET -0.000000 0.000000 4.148795
                    }
                }
            }
        }
    }
}
MOTION
Frames:    12
Frame Time:    0.008333
-13.165805    111.461021    72.801079    -3.978803    0.896369    94.449226    0.738100    -8.027751    0.350534    2.923524    -1.307631    0.332107    -6.967397    22.128317    -4.028948    5.142903    -0.622843    -3.826090    3.625446    5.500854    -2.267389    -82.851463    40.796585    7.122499    1.125318    -19.806782    -24.237206    -19.664618    -16.531559    -18.336353    -12.369605    9.103416    -16.953791    81.864555    58.828838    1.848314    -3.921914    -22.245180    14.888660    19.517303    -19.819338    12.086038    5.591389    -0.800182    0.478097    -1.620943    11.418004    5.628181    -16.385822    11.391726    3.505302    0.000000    0.000000    0.000000    -4.389635    -3.187893    6.989389    2.991253    15.907479    -2.781908    11.802752    7.657896    -11.980607    0.000000    0.000000    0.000000    
-13.236854    111.041832    72.829941    -3.937474    0.833582    94.516121    0.977014    -8.061942    0.193212    2.733286    -1.085870    0.150820    -7.416317    22.152246    -3.743845    5.527823    -1.109745    -3.476201    3.513748    5.350244    -1.808178    -82.864227    41.118164    7.179492    1.128903    -20.152411    -23.997450    -19.817633    -16.884264    -18.201183    -12.738040    8.976941    -16.736996    82.198776    58.659084    2.078682    -3.871082    -22.086479    14.584038    19.631981    -19.690836    11.913326    5.634610    -1.041929    0.572868    -1.551487    12.224405    5.324822    -16.392633    11.533865    2.855909    0.000000    0.000000    0.000000    -4.296123    -3.444365    7.412386    3.233673    16.518644    -2.675628    12.409266    7.882669    -11.564104    0.000000    0.000000    0.000000    
-13.300867    110.587189    72.859718    -3.888850    0.767355    94.570374    1.211544    -8.171990    0.086581    2.453123    -0.671603    0.004498    -7.499997    22.123503    -3.654479    5.640107    -1.830298    -3.333855    3.620498    5.098258    -1.394219    -83.036263    41.429550    7.177317    1.221173    -20.501665    -23.659197    -20.088120    -17.159700    -18.332306    -12.944884    8.792076    -16.572924    82.522148    58.671822    2.206599    -3.978235    -22.030766    14.448529    19.745277    -19.666868    11.596186    5.695808    -1.293671    0.603250    -1.528347    13.100398    5.044852    -16.076506    11.612048    2.230752    0.000000    0.000000    0.000000    -4.101155    -3.672916    7.648525    3.255371    17.078022    -2.729580    13.040986    8.469136    -10.797998    0.000000    0.000000    0.000000    
-13.370937    110.072731    72.883499    -3.872336    0.736320    94.600075    1.402208    -8.348356    -0.002770    2.231924    -0.147220    -0.102528    -7.631302    21.419363    -3.534022    5.719972    -1.543743    -3.164690    3.630096    4.769486    -0.928089    -83.182007    41.899158    7.203439    1.369534    -20.870529    -23.387926    -20.211111    -17.487829    -18.345242    -13.258811    8.561790    -16.606903    82.814041    58.830898    2.486689    -4.101654    -21.820105    14.118411    20.048393    -19.408895    11.659312    5.686461    -1.566768    0.658083    -1.484684    13.964725    4.981699    -15.469972    11.733458    1.575453    0.000000    0.000000    0.000000    -3.909037    -3.995884    7.743485    3.161791    17.762348    -2.826734    13.677623    9.042605    -9.720822    0.000000    0.000000    0.000000    
-13.435756    109.521317    72.909302    -3.847080    0.733004    94.633148    1.565341    -8.550691    -0.048156    1.881407    0.468334    -0.173044    -7.478470    20.782864    -3.576709    5.752739    -1.486260    -3.152950    3.911822    4.457770    -0.545080    -83.385681    42.189301    7.064364    1.485240    -21.082355    -23.137465    -20.278830    -17.702271    -18.182022    -13.349709    8.269691    -16.667044    83.071342    59.054672    2.607299    -4.255048    -21.716631    13.959344    20.348581    -19.267227    11.626507    5.649661    -1.825473    0.701707    -1.458513    14.884405    4.337469    -14.953676    11.547665    1.645937    0.000000    0.000000    0.000000    -3.793396    -4.311960    8.033799    3.260016    18.476971    -2.830022    13.949613    9.568853    -9.009691    0.000000    0.000000    0.000000    
-13.484663    108.932816    72.958878    -3.799727    0.665798    94.674942    1.658786    -8.588924    -0.066683    1.723054    0.653892    -0.201132    -7.393817    20.923946    -3.619536    5.888023    -2.046851    -3.154722    3.959226    4.477048    -0.510071    -83.417175    42.221294    6.873714    1.628270    -21.247444    -22.903362    -20.075548    -17.951071    -17.760500    -13.235814    8.251378    -16.648436    82.899734    59.019028    2.940927    -4.259788    -21.579639    13.797872    20.369595    -19.116259    11.713225    5.699223    -2.080158    0.727373    -1.439830    15.757128    4.328064    -14.397293    11.621298    1.207012    0.000000    0.000000    0.000000    -3.628037    -4.593096    8.564779    3.510732    19.201338    -2.767599    13.962490    9.993869    -8.597374    0.000000    0.000000    0.000000    
-13.555799    108.270439    72.944939    -3.802002    0.770663    94.654114    1.541008    -8.611178    0.024336    1.667568    0.718603    -0.101984    -7.102873    20.854776    -3.751431    5.716613    -2.059961    -3.301131    3.975137    4.633319    -0.803317    -83.427292    42.069893    6.565353    1.816838    -21.336405    -22.482376    -20.135908    -17.912651    -18.281153    -13.065372    8.299407    -16.710510    82.718582    59.024334    3.143418    -4.438409    -21.420828    13.675307    20.674337    -18.928669    11.597306    5.459776    -2.349713    0.742552    -1.335923    16.647528    4.224864    -13.825866    11.533382    1.215172    0.000000    0.000000    0.000000    -3.572868    -4.981905    8.652000    3.444689    20.068247    -2.887605    14.119349    10.328223    -7.709436    0.000000    0.000000    0.000000    
-13.601653    107.550407    73.001907    -3.744863    0.708517    94.636765    1.520463    -8.628688    0.059682    1.704486    0.903618    -0.068581    -7.174171    20.667372    -3.781998    6.013515    -2.012946    -3.277835    3.932834    4.724207    -0.786627    -83.390205    42.204979    6.246170    2.107952    -21.529644    -22.160776    -20.280254    -18.014549    -18.416025    -12.963847    8.315624    -16.859015    82.322968    59.107594    3.633214    -4.442602    -21.248755    13.520308    20.968475    -18.702766    11.750419    5.502850    -2.576828    0.917797    -1.312422    17.535545    3.923098    -13.314466    11.371018    1.453763    0.000000    0.000000    0.000000    -3.307674    -5.289601    9.018367    3.519659    20.872154    -2.865670    14.159366    10.576328    -7.533447    0.000000    0.000000    0.000000    
-13.647480    106.770256    73.021095    -3.680690    0.761312    94.639435    1.406899    -8.647399    0.106423    1.679206    1.117120    -0.001389    -6.801215    20.396820    -3.833433    5.702931    -1.935189    -3.351274    3.949301    4.791207    -0.940143    -83.335648    42.125946    5.949706    2.246621    -21.609726    -22.016796    -20.177378    -18.101400    -18.348942    -12.833385    8.262452    -17.002998    82.048798    59.214668    3.953134    -4.428536    -21.134663    13.418482    20.898428    -18.582314    11.846194    5.347051    -2.753494    0.943579    -1.242246    18.378651    3.865773    -12.625578    11.180389    1.773639    0.000000    0.000000    0.000000    -3.154885    -5.584206    9.093768    3.418953    21.743896    -2.579826    14.369983    10.663222    -7.505566    0.000000    0.000000    0.000000    
-13.706291    105.927696    73.047897    -3.645828    0.800970    94.604774    1.270886    -8.597419    0.251661    1.618184    1.089073    0.140944    -6.303783    20.790148    -4.006264    5.530806    -2.576786    -3.532668    4.076520    5.108860    -1.376164    -83.181465    41.784660    5.433333    2.303881    -21.714918    -21.791809    -19.998337    -18.212021    -18.460321    -12.309834    8.480729    -17.163391    81.154808    59.231098    4.618165    -4.447239    -21.038317    13.381070    21.068600    -18.434618    12.024413    5.243390    -2.978978    1.077880    -1.208691    19.220331    3.861095    -12.053008    11.032628    2.161815    0.000000    0.000000    0.000000    -2.987781    -5.880114    9.334292    3.376711    22.556162    -2.477624    15.230282    10.027171    -7.477388    0.000000    0.000000    0.000000    
-13.751748    105.013748    73.084785    -3.582044    0.843326    94.599724    1.099162    -8.592360    0.298194    1.709701    1.253541    0.196885    -6.110672    20.852629    -4.100150    5.436452    -3.011901    -3.621125    3.989721    5.227337    -1.567842    -82.978027    41.605583    5.128444    2.424885    -21.697449    -21.675133    -20.434629    -18.012833    -18.982801    -12.185611    8.576133    -17.333624    80.551476    59.196445    5.239882    -4.332980    -20.783550    13.411823    21.184261    -18.144766    12.194424    5.145819    -3.130161    1.172098    -1.182104    19.951504    4.192558    -13.508033    10.307203    2.644602    0.000000    0.000000    0.000000    -2.811420    -6.098973    9.497038    3.351656    23.457272    -2.325387    15.898110    8.306857    -7.515387    0.000000    0.000000    0.000000    
-13.801000    104.019905    73.108490    -3.510955    0.904216    94.605049    0.882135    -8.597595    0.383491    1.835265    1.465743    0.293867    -5.875340    20.733738    -4.200115    5.342596    -3.161398    -3.717066    3.950306    5.364041    -1.846956    -82.768799    41.427582    4.756241    2.552261    -21.888887    -21.661230    -20.855879    -18.085030    -19.158722    -12.047714    8.501745    -17.647526    80.030571    59.455418    5.665963    -4.216925    -20.771156    13.429043    21.189060    -18.087778    12.507126    5.024090    -3.278669    1.147904    -1.169901    20.751003    4.526042    -16.998354    8.491617    3.596482    0.000000    0.000000    0.000000    -2.712549    -6.298541    9.704366    3.420247    24.483646    -2.449660    15.864476    5.090420    -6.983941    0.000000    0.000000    0.000000    
